<svg width="84" height="879" viewBox="0 0 84 879" fill="none" xmlns="http://www.w3.org/2000/svg">
<g clip-path="url(#clip0)">
<path d="M35.3451 48.1365C33.4719 45.5135 30.5449 44.0377 27.3151 44.088C24.0853 44.1382 21.2055 45.7042 19.4148 48.3842C17.6328 51.0505 17.2638 54.3968 18.4253 57.3302C18.7363 58.1312 19.2228 58.9068 19.868 59.6305L27.0448 67.7996C27.2071 67.9845 27.4424 68.0889 27.6882 68.0851C27.934 68.0812 28.1659 67.9696 28.3224 67.7798L35.2398 59.3937C35.865 58.646 36.3266 57.8566 36.6101 57.0527C37.682 54.0793 37.2091 50.7461 35.3451 48.1365ZM35.0297 56.4895C34.8111 57.1098 34.448 57.7253 33.9512 58.3196C33.9498 58.321 33.9484 58.3224 33.9472 58.3242L27.6551 65.9519L21.1247 58.5188C20.6099 57.9407 20.2279 57.3368 19.9877 56.7178C19.0271 54.2919 19.3343 51.5251 20.8098 49.317C22.29 47.1018 24.6707 45.8076 27.3412 45.766C30.0116 45.7245 32.4311 46.9442 33.9794 49.1123C35.5232 51.2734 35.9166 54.0293 35.0297 56.4895Z" fill="black"/>
<path d="M27.3924 49.0664C24.8017 49.1066 22.7265 51.2472 22.7668 53.8382C22.8071 56.4292 24.9475 58.5042 27.5385 58.4639C30.1296 58.4236 32.2045 56.2831 32.1642 53.6921C32.1239 51.1013 29.9832 49.0261 27.3924 49.0664ZM27.5125 56.7857C25.847 56.8116 24.4708 55.4777 24.4449 53.8121C24.419 52.1466 25.753 50.7704 27.4185 50.7445C29.0841 50.7186 30.4602 52.0526 30.4861 53.7181C30.512 55.3837 29.1781 56.7598 27.5125 56.7857Z" fill="black"/>
<path d="M29.0718 101.138L26.493 98.6673L26.5226 98.6369C28.2322 96.6701 29.4374 94.421 30.1306 92.05L33.0603 92.0044L33.0292 90.0047L26.03 90.1135L25.9989 88.1137L23.9992 88.1448L24.0302 90.1446L17.0311 90.2534L17.062 92.2432L28.2307 92.0695C27.5908 94.0097 26.5593 95.856 25.1444 97.4782C24.1985 96.4627 23.411 95.3449 22.7826 94.1645L20.7828 94.1956C21.5381 95.814 22.5619 97.3383 23.8334 98.7087L18.822 103.807L20.2639 105.205L25.1856 100.128L28.3436 103.189L29.0718 101.138ZM34.6223 95.9806L32.6225 96.0117L28.3096 108.08L30.3094 108.049L31.3826 105.032L36.132 104.958L37.3085 107.94L39.3083 107.909L34.6223 95.9806ZM32.1114 103.021L33.6639 98.6659L35.351 102.97L32.1114 103.021Z" fill="black"/>
<path d="M32.7698 8.99891L31.27 9.02223L31.2933 10.5221L32.7931 10.4987L32.7698 8.99891Z" fill="black"/>
<path d="M29.2815 0.052062L23.9796 0.134496L20.7094 5.21095L21.0044 24.1837L33.003 23.9971L32.863 14.9982L31.3632 15.0215L31.4332 19.521L22.4343 19.6609L22.2162 5.63758L24.8053 1.62184L28.5025 1.56436L31.2151 5.49766L31.2466 7.52241L32.7464 7.49909L32.708 5.02439L29.2815 0.052062ZM31.4565 21.0208L31.4798 22.5206L22.4809 22.6605L22.4576 21.1607L31.4565 21.0208Z" fill="black"/>
<path d="M32.8164 11.9985L31.3166 12.0219L31.3399 13.5217L32.8397 13.4984L32.8164 11.9985Z" fill="black"/>
<path d="M26.7938 10.592L29.0435 10.557L29.0202 9.05721L27.5204 9.08053L27.4971 7.58071L25.9973 7.60403L26.0227 9.24183C24.86 9.6718 24.2659 10.9631 24.6959 12.1258C25.0268 13.0205 25.8868 13.6083 26.8405 13.5916C27.2546 13.5852 27.5956 13.9157 27.602 14.3299C27.6085 14.744 27.2779 15.085 26.8638 15.0915L24.6141 15.1264L24.6374 16.6263L26.1372 16.6029L26.1605 18.1028L27.6603 18.0794L27.6349 16.4416C28.7976 16.0117 29.3917 14.7204 28.9617 13.5577C28.6308 12.663 27.7708 12.0752 26.8171 12.0918C26.403 12.0983 26.062 11.7677 26.0556 11.3536C26.0491 10.9394 26.3797 10.5984 26.7938 10.592Z" fill="black"/>
<path d="M27.4504 4.58107L25.9506 4.60439L25.9739 6.10421L27.4738 6.08089L27.4504 4.58107Z" fill="black"/>
<path d="M28.6261 129.078C23.1067 129.164 18.7069 133.713 18.7927 139.232C18.8786 144.751 23.4177 149.161 28.937 149.075C34.4663 148.989 38.8761 144.44 38.7903 138.921C38.7045 133.402 34.1554 128.992 28.6261 129.078ZM28.9159 147.076C24.4964 147.144 20.8612 143.62 20.7925 139.201C20.7238 134.781 24.2477 131.146 28.6672 131.077C33.0866 131.009 36.7219 134.533 36.7906 138.952C36.8593 143.372 33.3354 147.007 28.9159 147.076Z" fill="black"/>
<path d="M29.2137 134.069L27.7139 134.093L27.8072 140.092L33.1055 143.16L33.8363 141.918L29.2954 139.319L29.2137 134.069Z" fill="black"/>
<path d="M26.5032 184.868C25.8132 184.878 25.262 185.447 25.2727 186.137C25.2835 186.827 25.8521 187.378 26.542 187.367C27.2319 187.357 27.7832 186.788 27.7724 186.098C27.7617 185.408 27.1931 184.857 26.5032 184.868ZM32.5024 184.774C31.8125 184.785 31.2613 185.354 31.272 186.044C31.2827 186.734 31.8514 187.285 32.5413 187.274C33.2312 187.263 33.7824 186.695 33.7717 186.005C33.761 185.315 33.1923 184.764 32.5024 184.774ZM29.3512 175.072C23.8319 175.158 19.4221 179.707 19.5079 185.226C19.5937 190.746 24.1428 195.156 29.6621 195.07C35.1815 194.984 39.5913 190.435 39.5055 184.915C39.4197 179.396 34.8705 174.986 29.3512 175.072ZM29.6311 193.07C25.2216 193.139 21.5762 189.605 21.5076 185.195C21.5031 184.905 21.5186 184.615 21.5443 184.335C23.8877 183.248 25.7274 181.289 26.6702 178.884C28.5197 181.416 31.5253 183.039 34.8949 182.987C35.6748 182.975 36.4233 182.873 37.1406 182.692C37.3616 183.399 37.4934 184.157 37.5057 184.947C37.5743 189.356 34.0405 193.001 29.6311 193.07Z" fill="black"/>
<path d="M41.1734 227.833L33.5843 227.951L36.8227 224.61L36.1118 223.911L32.1745 227.972L28.1127 224.035L27.4139 224.756L30.7646 227.994L23.1755 228.112C22.0757 228.129 21.1896 229.033 21.2069 230.143L21.3934 242.142C21.4105 243.242 22.3244 244.128 23.4243 244.11L41.4221 243.831C42.522 243.813 43.4079 242.9 43.3908 241.8L43.2042 229.801C43.187 228.691 42.2732 227.815 41.1734 227.833ZM41.391 241.831L23.3932 242.111L23.2066 230.112L41.2045 229.832L41.391 241.831ZM29.237 232.019L29.3614 240.018L36.2983 235.909L29.237 232.019Z" fill="white"/>
<path d="M41.7753 284.097C43.3333 284.097 44.6007 282.829 44.6007 281.272C44.6007 279.714 43.3333 278.446 41.7753 278.446C40.2174 278.446 38.95 279.714 38.95 281.272C38.9499 282.829 40.2174 284.097 41.7753 284.097ZM41.7753 279.911C42.5255 279.911 43.1359 280.521 43.1359 281.271C43.1359 282.022 42.5255 282.632 41.7753 282.632C41.0251 282.632 40.4148 282.022 40.4148 281.271C40.4147 280.521 41.0251 279.911 41.7753 279.911Z" fill="white"/>
<path d="M27.1959 283.397C27.4313 283.397 27.6667 283.3 27.6667 283.107V281.652H28.0651L28.892 283.258C28.9584 283.385 29.0731 283.433 29.1938 283.433C29.4715 283.433 29.7853 283.179 29.7853 282.944C29.7853 282.914 29.7793 282.872 29.7551 282.835L29.0188 281.502C29.4412 281.339 29.7491 280.952 29.7491 280.276C29.7491 279.292 29.0912 278.985 28.2643 278.985H27.0149C26.8398 278.985 26.7251 279.117 26.7251 279.268V283.107C26.7251 283.3 26.9605 283.397 27.1959 283.397ZM27.6667 279.806H28.2642C28.6022 279.806 28.8074 279.944 28.8074 280.367C28.8074 280.789 28.6022 280.928 28.2642 280.928H27.6667V279.806Z" fill="white"/>
<path d="M30.6606 283.397H32.8092C33.0084 283.397 33.093 283.186 33.093 282.992C33.093 282.769 32.9903 282.576 32.8092 282.576H31.1917V281.55H32.097C32.2962 281.55 32.3807 281.357 32.3807 281.194C32.3807 281.001 32.2781 280.826 32.097 280.826H31.1917V279.805H32.8092C32.9903 279.805 33.093 279.612 33.093 279.389C33.093 279.196 33.0085 278.985 32.8092 278.985H30.6606C30.4553 278.985 30.2501 279.081 30.2501 279.274V283.107C30.2501 283.3 30.4553 283.397 30.6606 283.397Z" fill="white"/>
<path d="M34.8614 283.433C35.7245 283.433 36.3764 282.974 36.3764 282.172C36.3764 281.809 36.2255 281.725 35.8995 281.725C35.6581 281.725 35.4529 281.785 35.4348 282.009C35.4167 282.244 35.3866 282.612 34.9036 282.612C34.5536 282.612 34.3544 282.419 34.3544 282.009V280.409C34.3544 279.999 34.5536 279.806 34.8976 279.806C35.4107 279.806 35.4288 280.192 35.4348 280.349C35.4469 280.566 35.6521 280.632 35.9056 280.632C36.2255 280.632 36.3764 280.548 36.3764 280.186C36.3764 279.419 35.7245 278.985 34.8615 278.985C34.0708 278.985 33.4129 279.371 33.4129 280.409V282.009C33.4129 283.047 34.0708 283.433 34.8614 283.433Z" fill="white"/>
<path d="M46.2085 275.35H23.8452C23.1183 275.35 22.5269 275.941 22.5269 276.668V286.396C22.5269 287.123 23.1183 287.714 23.8452 287.714H46.2085C46.9355 287.714 47.5269 287.123 47.5269 286.396V276.668C47.5269 275.941 46.9355 275.35 46.2085 275.35ZM46.0621 286.249H23.9917V276.815H46.0621V286.249Z" fill="white"/>
</g>
<path d="M46.0039 348.539C47.0717 348.539 47.9375 347.673 47.9375 346.605V340.805H65.3398C66.4077 340.805 67.2734 339.939 67.2734 338.871V307.934C67.2734 306.866 66.4077 306 65.3398 306H18.9336C17.8657 306 17 306.866 17 307.934V338.871C17 339.939 17.8657 340.805 18.9336 340.805H36.3359V346.605C36.3359 347.673 37.2017 348.539 38.2695 348.539H40.2031V360.398H38.2695C35.071 360.398 32.4687 363.001 32.4687 366.199V368.133H26.6679C25.6001 368.133 24.7344 368.998 24.7344 370.066C24.7344 371.134 25.6001 372 26.6679 372H57.6055C58.6733 372 59.539 371.134 59.539 370.066C59.539 368.998 58.6733 368.133 57.6055 368.133H51.8047V366.199C51.8047 363.001 49.2024 360.398 46.0039 360.398H44.0703V348.539H46.0039ZM47.9375 366.199V368.133H36.3359V366.199C36.3359 365.133 37.2033 364.266 38.2695 364.266H46.0039C47.0701 364.266 47.9375 365.133 47.9375 366.199ZM20.8672 309.867H63.4062V336.938H20.8672V309.867ZM44.0703 340.805V344.672H40.2031V340.805H44.0703Z" fill="black"/>
<path d="M34.4023 317.602H57.6055C58.6733 317.602 59.539 316.736 59.539 315.668C59.539 314.6 58.6733 313.734 57.6055 313.734H34.4023C33.3345 313.734 32.4687 314.6 32.4687 315.668C32.4687 316.736 33.3345 317.602 34.4023 317.602Z" fill="black"/>
<path d="M26.6679 325.336H57.6055C58.6733 325.336 59.539 324.47 59.539 323.402C59.539 322.335 58.6733 321.469 57.6055 321.469H26.6679C25.6001 321.469 24.7344 322.335 24.7344 323.402C24.7344 324.47 25.6001 325.336 26.6679 325.336Z" fill="black"/>
<path d="M47.9375 331.137C47.9375 330.069 47.0717 329.203 46.0039 329.203H26.6679C25.6001 329.203 24.7344 330.069 24.7344 331.137C24.7344 332.205 25.6001 333.07 26.6679 333.07H46.0039C47.0717 333.07 47.9375 332.205 47.9375 331.137Z" fill="black"/>
<path d="M64.3978 398.447H19.5362C14.8457 398.447 11.0295 402.263 11.0295 406.954V434.409C11.0295 439.089 14.8291 442.899 19.506 442.915V455.374L37.4102 442.915H64.3978C69.0883 442.915 72.9045 439.099 72.9045 434.409V406.954C72.9045 402.263 69.0883 398.447 64.3978 398.447ZM69.279 434.409C69.279 437.1 67.0894 439.29 64.3978 439.29H36.2727L23.1314 448.434V439.29H19.5362C16.8446 439.29 14.655 437.1 14.655 434.409V406.954C14.655 404.262 16.8446 402.073 19.5362 402.073H64.3978C67.0894 402.073 69.279 404.262 69.279 406.954V434.409Z" fill="black"/>
<path d="M27.5906 411.258H56.3445V414.883H27.5906V411.258Z" fill="black"/>
<path d="M27.5906 418.992H56.3445V422.618H27.5906V418.992Z" fill="black"/>
<path d="M27.5906 426.727H56.3445V430.352H27.5906V426.727Z" fill="black"/>
<path d="M42 508C28.455 508 17.5 518.955 17.5 532.5C17.5 550.875 42 578 42 578C42 578 66.5 550.875 66.5 532.5C66.5 518.955 55.545 508 42 508ZM24.5 532.5C24.5 522.84 32.34 515 42 515C51.66 515 59.5 522.84 59.5 532.5C59.5 542.58 49.42 557.665 42 567.08C34.72 557.735 24.5 542.475 24.5 532.5Z" fill="black"/>
<path d="M42 541.25C46.8325 541.25 50.75 537.332 50.75 532.5C50.75 527.668 46.8325 523.75 42 523.75C37.1675 523.75 33.25 527.668 33.25 532.5C33.25 537.332 37.1675 541.25 42 541.25Z" fill="black"/>
<path d="M42 683C36.3137 683 31.6875 678.374 31.6875 672.688V652.062C31.6875 646.376 36.3137 641.75 42 641.75C47.6863 641.75 52.3125 646.376 52.3125 652.062V672.688C52.3125 678.374 47.6863 683 42 683ZM42 645.875C38.5882 645.875 35.8125 648.651 35.8125 652.062V672.688C35.8125 676.099 38.5882 678.875 42 678.875C45.4119 678.875 48.1875 676.099 48.1875 672.688V652.062C48.1875 648.651 45.4119 645.875 42 645.875Z" fill="black"/>
<path d="M42 637.625C36.3137 637.625 31.6875 632.999 31.6875 627.312C31.6875 621.626 36.3137 617 42 617C47.6863 617 52.3125 621.626 52.3125 627.312C52.3125 632.999 47.6863 637.625 42 637.625ZM42 621.125C38.5882 621.125 35.8125 623.901 35.8125 627.312C35.8125 630.724 38.5882 633.5 42 633.5C45.4118 633.5 48.1875 630.724 48.1875 627.312C48.1875 623.901 45.4118 621.125 42 621.125Z" fill="black"/>
<path d="M70.8784 746.088H35.7937C34.737 746.088 33.8723 746.953 33.8723 748.01C33.8723 749.067 34.737 749.931 35.7937 749.931H70.8784C71.9352 749.931 72.7998 749.067 72.7998 748.01C72.7998 746.953 71.9544 746.088 70.8784 746.088Z" fill="black"/>
<path d="M20.1343 739.075C15.1963 739.075 11.1998 743.072 11.1998 748.01C11.1998 752.948 15.1963 756.944 20.1343 756.944C25.0723 756.944 29.0688 752.948 29.0688 748.01C29.0688 743.072 25.0723 739.075 20.1343 739.075ZM20.1343 753.101C17.3099 753.101 15.0426 750.815 15.0426 748.01C15.0426 745.185 17.3291 742.918 20.1343 742.918C22.9396 742.918 25.226 745.205 25.226 748.01C25.226 750.815 22.9396 753.101 20.1343 753.101Z" fill="black"/>
<path d="M70.8784 722.071H35.7937C34.737 722.071 33.8723 722.936 33.8723 723.992C33.8723 725.049 34.737 725.914 35.7937 725.914H70.8784C71.9352 725.914 72.7998 725.049 72.7998 723.992C72.7998 722.936 71.9544 722.071 70.8784 722.071Z" fill="black"/>
<path d="M20.1343 715C15.1963 715 11.1998 718.997 11.1998 723.934C11.1998 728.872 15.1963 732.869 20.1343 732.869C25.0723 732.869 29.0688 728.872 29.0688 723.934C29.0688 719.016 25.0723 715.019 20.1343 715ZM20.1343 729.045C17.3099 729.045 15.0426 726.759 15.0426 723.954C15.0426 721.148 17.3291 718.862 20.1343 718.862C22.9588 718.862 25.226 721.148 25.226 723.954C25.226 726.759 22.9396 729.045 20.1343 729.045Z" fill="black"/>
<path d="M70.8784 770.106H35.7937C34.737 770.106 33.8723 770.97 33.8723 772.027C33.8723 773.084 34.737 773.949 35.7937 773.949H70.8784C71.9352 773.949 72.7998 773.084 72.7998 772.027C72.7998 770.97 71.9544 770.106 70.8784 770.106Z" fill="black"/>
<path d="M20.1343 763.131C15.1963 763.131 11.1998 767.127 11.1998 772.065C11.1998 777.003 15.1963 781 20.1343 781C25.0723 781 29.0688 777.003 29.0688 772.065C29.0688 767.147 25.0723 763.131 20.1343 763.131ZM20.1343 777.176C17.3099 777.176 15.0426 774.89 15.0426 772.085C15.0426 769.26 17.3291 766.993 20.1343 766.993C22.9588 766.993 25.226 769.279 25.226 772.085C25.226 774.89 22.9396 777.176 20.1343 777.176Z" fill="black"/>
<g clip-path="url(#clip1)">
<path d="M40.7511 840.501C40.7511 839.81 41.3097 839.251 42.0009 839.251C42.6927 839.251 43.2512 839.81 43.2512 840.501V873.5C43.2512 874.191 42.6926 874.75 42.0009 874.75C41.3099 874.75 40.7511 874.191 40.7511 873.5V840.501Z" stroke="black" stroke-width="3"/>
<path d="M52.5355 854.772L52.5835 854.731L52.628 854.687L70.038 837.271L68.9772 836.211L70.0552 837.254C70.8929 836.388 71.7224 836.383 72.3259 836.655C73.0131 836.965 73.4994 837.667 73.4994 838.438V875.563C73.4994 876.629 72.6284 877.5 71.5623 877.5C71.0119 877.5 70.4675 877.254 70.1208 876.87L70.1138 876.862L70.1067 876.855L52.2682 857.642C51.9165 857.244 51.75 856.784 51.75 856.313C51.75 855.818 51.942 855.343 52.3163 854.966L52.3315 854.952C52.3534 854.932 52.3822 854.907 52.413 854.879C52.4436 854.852 52.4741 854.826 52.4987 854.804C52.5175 854.788 52.5285 854.778 52.5332 854.774C52.5356 854.772 52.5363 854.771 52.5355 854.772Z" stroke="black" stroke-width="3"/>
<path d="M13.9984 837.307L14.0331 837.347L14.0705 837.385L31.483 854.789L31.4926 854.799L31.5023 854.808C32.0948 855.379 32.2504 855.864 32.2504 856.313C32.2504 856.793 32.0782 857.251 31.7599 857.612L13.8696 876.879L13.8614 876.888L13.8534 876.897C13.5377 877.248 12.997 877.5 12.4385 877.5C11.3722 877.5 10.501 876.629 10.501 875.563V838.438C10.501 837.372 11.3719 836.501 12.4385 836.501C12.9361 836.501 13.4163 836.696 13.7952 837.076L13.8018 837.084C13.8196 837.103 13.8439 837.131 13.8717 837.162C13.923 837.22 13.9743 837.279 13.9947 837.303L13.9984 837.307Z" stroke="black" stroke-width="3"/>
<path d="M62.1488 814.542L62.153 814.544C62.3629 814.631 62.5006 814.837 62.5006 815.064V830.189C62.5006 830.499 62.2482 830.751 61.9381 830.751H46.8136C46.5861 830.751 46.3822 830.615 46.2944 830.406C46.2066 830.189 46.2593 829.949 46.4139 829.795L46.4166 829.792L52.5848 823.624L53.8272 822.382L52.4054 821.349C48.6035 818.589 44.0161 817.002 39.2511 817.002C32.4219 817.002 26.0196 820.107 21.6893 825.499L21.6893 825.499L21.6855 825.503C21.2596 826.038 20.478 826.129 19.9346 825.692L19.9343 825.692C19.3938 825.258 19.3097 824.47 19.7404 823.935L19.7415 823.934C24.559 817.931 31.669 814.502 39.2511 814.502C44.7933 814.502 50.1513 816.439 54.52 819.832L55.5651 820.644L56.5008 819.708L61.5416 814.667L61.5443 814.664C61.7046 814.503 61.9445 814.457 62.1488 814.542Z" stroke="black" stroke-width="3"/>
</g>
<defs>
<clipPath id="clip0">
<rect width="31" height="288" fill="white" transform="translate(18)"/>
</clipPath>
<clipPath id="clip1">
<rect width="66" height="66" fill="white" transform="translate(9 813)"/>
</clipPath>
</defs>
</svg>
