<svg width="61" height="50" viewBox="0 0 61 50" fill="none" xmlns="http://www.w3.org/2000/svg">
<path d="M22.2252 13.6634L20.4222 14.2112C20.0047 12.8204 19.792 11.5147 19.792 10.326C19.792 9.75165 19.8372 9.1746 19.9356 8.61084L21.7944 8.92995C21.7173 9.38734 21.6774 9.85802 21.6774 10.326C21.6774 11.3259 21.8582 12.4481 22.2252 13.6634Z" fill="#FF7A00"/>
<path d="M25.7235 20.415L24.2157 21.5425C23.1041 20.0454 22.1707 18.4764 21.4395 16.8809L23.1547 16.0938C23.8301 17.5723 24.6944 19.0242 25.7235 20.415Z" fill="#FF7A00"/>
<path d="M25.6634 3.1594C24.3231 3.99175 23.2461 5.18043 22.5467 6.59514L20.8555 5.76812C21.7091 4.03163 23.0281 2.57437 24.6741 1.55322L25.6634 3.1594Z" fill="#FF7A00"/>
<path d="M37.9587 29.1425L37.4667 30.9588C35.7409 30.4907 34.0443 29.7914 32.4248 28.8766L33.3476 27.2358C34.8367 28.0762 36.3871 28.7144 37.9587 29.1425Z" fill="#FF7A00"/>
<path d="M32.7586 0.356338L32.2614 2.1726C31.5567 1.98379 30.8254 1.88806 30.0888 1.88274C29.3522 1.88806 28.6209 1.98379 27.9162 2.1726L27.4136 0.356338C28.2725 0.127644 29.1607 0.00531848 30.0595 0H30.1207C31.0195 0.00531848 31.9077 0.127644 32.7586 0.356338Z" fill="#FF7A00"/>
<path d="M27.761 28.8715C26.1415 29.7863 24.4449 30.4856 22.7244 30.959L22.2324 29.1427C23.8067 28.7119 25.3491 28.0711 26.8382 27.2334L27.761 28.8715Z" fill="#FF7A00"/>
<path d="M34.1712 23.7206C32.9373 25.0768 31.5252 26.34 30.0946 27.385C28.6479 26.3293 27.2359 25.0635 26.0073 23.7206L27.4034 22.4521C28.2251 23.3563 29.1186 24.2046 30.0627 24.9811L30.0893 25.0024L30.1158 24.9811C31.0599 24.2046 31.9534 23.3563 32.7751 22.4521L34.1712 23.7206Z" fill="#FF7A00"/>
<path d="M38.7391 16.8756C38.0078 18.4738 37.0744 20.0427 35.9629 21.5372L34.4551 20.415C35.4869 19.0242 36.3485 17.5723 37.0239 16.0938L38.7391 16.8756Z" fill="#FF7A00"/>
<path d="M40.3849 10.3258C40.3849 11.5092 40.1721 12.8175 39.7546 14.2057L37.9517 13.6632C38.3107 12.4506 38.4995 11.3284 38.4995 10.3285C38.4995 9.86047 38.4596 9.38978 38.3825 8.92707L40.2413 8.61328C40.3343 9.17438 40.3849 9.75144 40.3849 10.3258Z" fill="#FF7A00"/>
<path d="M39.3245 5.76807L37.6332 6.58977C36.9338 5.17771 35.8568 3.99169 34.5112 3.15137L35.5005 1.54785C37.1465 2.57432 38.4655 4.03158 39.3245 5.76807Z" fill="#FF7A00"/>
<path d="M19.6729 29.6506C18.9124 29.7463 18.1385 29.7969 17.362 29.8022H17.3354L17.3248 29.7756C16.9392 28.9539 16.1069 28.4141 15.1974 28.4141C13.897 28.4141 12.8413 29.4698 12.8413 30.7701C12.8413 32.0652 13.897 33.1209 15.1974 33.1209C16.1308 33.1209 16.9791 32.5678 17.354 31.7035L17.3647 31.6823H17.3913C18.2396 31.677 19.0879 31.6211 19.9096 31.5147L19.6729 29.6506ZM15.1974 31.7168C14.6735 31.7168 14.2534 31.2967 14.2534 30.7728C14.2534 30.2489 14.6735 29.8288 15.1974 29.8288C15.7159 29.8288 16.1414 30.2489 16.1414 30.7728C16.1441 31.294 15.7159 31.7168 15.1974 31.7168Z" fill="#FF7A00"/>
<path d="M30.0892 6.23877C27.8342 6.23877 26.002 8.07099 26.002 10.326C26.002 12.5811 27.8342 14.4133 30.0892 14.4133C32.3442 14.4133 34.1765 12.5811 34.1765 10.326C34.1765 8.07099 32.3442 6.23877 30.0892 6.23877ZM30.0892 12.8098C28.7197 12.8098 27.6055 11.6982 27.6055 10.326C27.6055 8.95917 28.717 7.84229 30.0892 7.84229C31.4614 7.84229 32.5729 8.95917 32.5729 10.326C32.5729 11.6982 31.4614 12.8098 30.0892 12.8098Z" fill="#FF7A00"/>
<path d="M44.9828 28.4165C44.0734 28.4165 43.2357 28.9537 42.8501 29.778L42.8395 29.8046H42.8182C42.0417 29.7993 41.2706 29.7488 40.5073 29.6531L40.2627 31.5225C41.0897 31.6289 41.938 31.6847 42.7863 31.69H42.8129L42.8235 31.7113C43.1985 32.5729 44.0468 33.1287 44.9802 33.1287C46.2806 33.1287 47.331 32.073 47.331 30.7779C47.3336 29.4722 46.2832 28.4165 44.9828 28.4165ZM44.9828 31.7166C44.4643 31.7166 44.0388 31.2965 44.0388 30.7726C44.0388 30.2487 44.4643 29.8286 44.9828 29.8286C45.5067 29.8286 45.9269 30.2487 45.9269 30.7726C45.9269 31.2938 45.5041 31.7166 44.9828 31.7166Z" fill="#FF7A00"/>
<path d="M5.6695 46.7096L9.42435 40.8779H11.339L5.6695 49.6853L0 40.8779H1.91465L5.6695 46.7096Z" fill="#FF7A00"/>
<path d="M27.7388 43.2633L23.984 49.095H22.0693L27.7388 40.2876L33.411 49.095H31.4963L27.7388 43.2633Z" fill="#FF7A00"/>
<path d="M17.508 40.8779H15.9019V49.095H17.508V40.8779Z" fill="#FF7A00"/>
<path d="M40.8433 46.7096L44.5982 40.8779H46.5128L40.8433 49.6853L35.1738 40.8779H37.0885L40.8433 46.7096Z" fill="#FF7A00"/>
<path d="M52.6824 40.8779H51.0762V49.095H52.6824V40.8779Z" fill="#FF7A00"/>
<path d="M60.177 40.8779H58.5708V49.095H60.177V40.8779Z" fill="#FF7A00"/>
</svg>
